<?xml version="1.0" standalone="no"?>
<!DOCTYPE svg PUBLIC "-//W3C//DTD SVG 20010904//EN"
 "http://www.w3.org/TR/2001/REC-SVG-20010904/DTD/svg10.dtd">
<svg version="1.0" xmlns="http://www.w3.org/2000/svg"
 width="1080.000000pt" height="2340.000000pt" viewBox="0 0 1080.000000 2340.000000"
 preserveAspectRatio="xMidYMid meet">

<g transform="translate(0.000000,2340.000000) scale(0.100000,-0.100000)"
fill="#000000" stroke="none">
<path d="M3531 17376 c-7 -8 -9 -34 -6 -67 3 -30 14 -175 25 -324 29 -391 66
-640 130 -873 38 -138 107 -247 126 -199 3 8 -20 115 -51 238 -72 293 -96 462
-130 929 -16 221 -36 310 -69 310 -7 0 -19 -6 -25 -14z"/>
<path d="M5069 16934 c-10 -13 -10 -17 1 -24 7 -4 19 -6 26 -3 42 16 132 -78
223 -233 85 -144 152 -242 195 -283 30 -29 38 -32 51 -21 25 21 18 43 -54 151
-37 57 -101 155 -141 216 -73 114 -139 185 -186 203 -39 15 -100 12 -115 -6z"/>
<path d="M2730 16725 c-21 -25 -5 -77 68 -228 85 -177 222 -410 367 -622 78
-114 102 -134 133 -103 20 20 14 43 -27 104 -242 367 -351 549 -442 742 -58
121 -73 138 -99 107z"/>
<path d="M4416 16688 c-8 -13 -22 -70 -31 -128 -20 -126 -87 -429 -115 -520
-27 -89 -26 -114 6 -129 31 -14 55 2 73 47 33 84 141 605 141 680 0 67 -44 97
-74 50z"/>
<path d="M6095 16585 c11 -115 18 -485 9 -484 -5 0 -40 49 -79 110 -38 60 -90
128 -114 152 -42 40 -43 41 -37 15 3 -15 29 -76 57 -135 60 -127 81 -179 120
-292 29 -85 34 -123 23 -179 -6 -28 -10 -30 -62 -37 -112 -14 -410 -93 -504
-134 -26 -11 -49 -17 -52 -13 -3 4 -16 55 -31 112 -14 58 -42 154 -61 213 -36
108 -42 162 -9 70 41 -111 77 -193 86 -193 30 0 -28 162 -132 367 -50 98 -104
211 -120 250 -37 93 -82 173 -114 203 -35 33 -40 20 -16 -35 12 -26 21 -52 21
-57 0 -5 -25 18 -56 51 -55 59 -94 85 -57 37 76 -99 134 -178 148 -205 48 -94
76 -396 56 -616 -17 -187 -40 -367 -50 -391 -5 -12 -31 -34 -58 -49 -63 -37
-330 -222 -338 -235 -12 -20 -24 -9 -55 48 -36 68 -130 194 -149 200 -7 2 21
-61 63 -140 42 -80 76 -148 76 -151 0 -4 -13 -13 -30 -22 l-29 -15 -60 122
c-32 68 -88 164 -122 215 -235 337 -290 402 -314 363 -14 -22 19 -92 85 -179
39 -51 84 -116 100 -144 27 -47 117 -305 108 -311 -1 -2 -50 -8 -108 -14 -243
-26 -355 -54 -580 -143 -269 -108 -497 -243 -700 -416 -457 -388 -768 -833
-945 -1355 -76 -221 -114 -430 -136 -738 -14 -209 -7 -359 27 -532 l27 -136
-26 -104 c-118 -471 -169 -1050 -136 -1558 23 -362 113 -765 228 -1013 17 -37
31 -70 31 -73 0 -11 207 -375 253 -444 127 -192 265 -339 437 -468 52 -39 115
-88 140 -108 89 -71 326 -174 498 -215 157 -38 593 -24 862 27 360 67 678 173
827 275 23 16 45 29 49 29 8 0 -1 -215 -16 -385 -6 -60 -19 -218 -30 -350 -37
-430 -62 -660 -71 -663 -8 -3 -84 -60 -234 -176 -255 -198 -454 -366 -560
-477 -92 -95 -159 -197 -317 -484 -30 -55 -79 -143 -108 -195 -102 -183 -419
-838 -562 -1160 -11 -25 -53 -115 -93 -200 -44 -93 -104 -247 -150 -385 -43
-126 -88 -252 -102 -278 -13 -26 -49 -132 -80 -235 -30 -103 -68 -227 -82
-277 -135 -446 -420 -1403 -485 -1625 -64 -220 -226 -760 -298 -990 -33 -107
-63 -203 -65 -212 -5 -16 3 -18 76 -18 59 0 81 3 81 13 0 13 108 422 154 587
39 136 210 707 323 1075 30 99 59 194 63 210 4 17 13 44 18 60 6 17 43 136 82
265 109 360 245 758 255 748 2 -2 -16 -61 -40 -133 -24 -71 -64 -209 -90 -305
-109 -411 -133 -498 -267 -940 -249 -828 -448 -1520 -448 -1562 0 -17 15 -18
179 -18 177 0 179 0 184 23 7 34 111 386 160 547 25 80 68 224 97 320 28 96
67 225 85 285 19 61 43 142 54 180 10 39 42 147 71 240 28 94 71 238 96 320
148 492 364 1177 406 1283 40 101 29 43 -22 -122 -28 -91 -73 -248 -100 -349
-53 -202 -81 -298 -200 -692 -46 -148 -95 -313 -111 -365 -15 -52 -46 -158
-69 -235 -23 -77 -48 -160 -55 -185 -13 -45 -71 -239 -200 -665 -37 -121 -78
-258 -91 -305 -14 -47 -38 -127 -55 -178 -16 -51 -29 -94 -29 -97 0 -3 73 -5
163 -5 l163 0 47 183 c85 337 145 571 167 652 23 84 36 132 120 440 28 105
132 471 230 815 160 559 229 809 285 1023 32 121 27 63 -9 -99 -91 -416 -202
-857 -291 -1159 -13 -44 -40 -141 -60 -215 -21 -74 -54 -196 -75 -270 -21 -74
-52 -184 -69 -245 -27 -100 -43 -160 -116 -440 -24 -92 -73 -274 -119 -445
-44 -167 -56 -214 -56 -227 0 -11 241 -13 1279 -13 l1278 0 7 523 c12 853 -8
1282 -94 2072 -12 109 -12 114 0 95 13 -23 76 -484 99 -725 11 -115 26 -311
33 -435 14 -254 17 -1120 5 -1367 l-8 -163 1180 0 c938 0 1181 3 1181 13 0 27
-31 368 -40 447 -6 47 -15 135 -20 195 -5 61 -23 256 -39 435 -17 179 -35 393
-41 475 -6 83 -15 195 -20 250 -31 323 -61 749 -59 835 3 97 26 -120 84 -795
13 -159 29 -335 35 -390 12 -119 62 -692 85 -960 28 -337 36 -429 41 -467 l6
-38 205 0 206 0 -7 53 c-3 28 -17 153 -31 277 -14 124 -35 302 -45 395 -11 94
-34 289 -50 435 -17 146 -39 335 -51 420 -30 225 -88 691 -99 795 -13 110 -38
311 -45 345 -2 14 -14 120 -25 235 -36 373 -51 506 -85 730 -18 121 -41 276
-50 345 -9 69 -27 188 -40 265 -82 483 -112 597 -215 812 -60 126 -125 229
-214 343 -73 94 -192 236 -256 305 -31 33 -80 101 -110 150 -55 93 -305 471
-340 515 -20 25 -20 25 10 310 17 157 40 353 51 435 57 414 88 622 98 646 5
15 19 111 31 215 17 145 26 192 38 202 18 14 42 21 322 102 149 43 204 65 375
149 110 55 238 118 284 140 106 51 165 97 278 214 302 313 474 679 524 1117
14 122 7 442 -12 568 -11 78 -11 85 8 120 41 72 64 172 70 297 6 122 -9 345
-29 445 -11 54 -10 56 24 110 135 211 259 553 323 890 50 268 81 636 70 850
-36 735 -266 1282 -745 1774 -221 226 -363 333 -607 455 -215 107 -351 160
-548 211 -265 69 -475 93 -772 88 l-201 -3 -27 108 c-26 102 -28 122 -29 355
-1 257 -15 362 -52 408 -14 17 -15 14 -9 -41z m-17 -2748 c32 -24 84 -63 117
-88 33 -24 129 -101 213 -171 144 -120 192 -148 192 -113 0 33 -174 192 -327
298 -40 28 -71 53 -68 55 7 7 191 -98 305 -174 83 -55 233 -175 304 -244 18
-18 18 -19 -12 -57 -48 -61 -83 -137 -89 -196 -5 -50 -4 -55 17 -62 28 -9 34
-2 55 65 24 75 48 120 80 150 l27 25 29 -35 c54 -65 112 -160 134 -222 24 -65
31 -73 54 -59 19 12 0 138 -39 263 -16 51 -30 96 -30 101 0 4 24 7 54 7 53 0
54 -1 119 -67 97 -100 128 -144 207 -293 81 -152 87 -160 96 -137 12 32 -28
167 -81 277 -30 60 -51 110 -47 110 3 0 20 -15 37 -34 131 -145 175 -197 265
-316 57 -74 128 -162 157 -196 73 -84 110 -179 248 -634 60 -198 126 -408 213
-685 188 -593 252 -900 252 -1208 0 -167 -10 -267 -41 -427 -85 -428 -351
-833 -699 -1065 -137 -91 -190 -119 -295 -158 -38 -14 -113 -41 -165 -60 -190
-70 -371 -118 -520 -137 -80 -10 -188 -26 -240 -34 -123 -20 -397 -21 -555 -1
-327 41 -630 104 -818 172 -77 27 -341 157 -398 196 -19 13 -74 46 -122 75
-91 53 -292 203 -379 281 -57 51 -62 45 -13 -15 19 -23 35 -47 35 -52 0 -17
-113 -70 -205 -97 -210 -61 -391 -41 -600 66 -66 34 -138 74 -160 89 -85 59
-166 143 -217 226 -52 86 -74 105 -62 57 25 -104 127 -222 265 -308 62 -39
157 -130 147 -141 -3 -3 -34 13 -69 35 -35 22 -87 53 -115 70 -61 35 -132 113
-208 226 -63 94 -121 203 -113 211 3 4 22 -4 42 -16 20 -12 38 -20 40 -18 3 3
-8 40 -24 84 -65 178 -77 390 -29 496 65 142 173 191 333 154 140 -33 231 -89
411 -253 66 -59 153 -137 194 -172 41 -36 85 -74 97 -85 33 -29 38 -14 10 31
-54 85 -81 154 -134 337 -117 410 -164 586 -154 586 5 0 13 -17 19 -37 69
-262 145 -480 182 -526 25 -30 36 -15 21 31 -29 94 -110 363 -126 422 -9 36
-39 137 -65 225 -26 88 -51 176 -54 195 l-7 35 26 -30 c13 -16 25 -33 25 -37
0 -12 149 -258 195 -323 61 -85 127 -147 148 -139 9 3 17 11 17 16 0 14 -27
108 -66 230 -65 203 -82 296 -139 740 -19 153 -35 321 -35 375 0 112 19 354
29 366 4 4 13 -53 20 -125 19 -193 37 -301 66 -403 33 -114 81 -215 102 -215
10 0 13 5 9 17 -12 30 -45 215 -57 320 -16 135 6 513 30 513 4 0 22 -45 40
-101 18 -55 46 -125 62 -156 34 -64 120 -174 131 -167 4 3 -1 24 -11 47 -64
150 -104 299 -125 462 -23 184 -26 286 -15 455 5 85 14 209 18 275 8 122 29
245 42 245 8 0 33 -134 54 -285 43 -326 54 -396 101 -615 50 -239 104 -420
123 -420 4 0 2 30 -5 68 -17 88 -18 120 -2 104 35 -35 36 -1 3 152 -29 133
-31 185 -10 276 17 73 54 170 64 170 4 0 6 -26 5 -57 -4 -109 26 -246 46 -213
4 7 11 100 15 207 l7 195 82 82 c96 97 183 146 301 171 90 19 203 15 294 -11
67 -19 189 -80 255 -128 51 -36 66 -38 66 -7 0 46 -215 184 -335 215 -80 21
-273 21 -346 0 -76 -22 -174 -77 -241 -136 -32 -27 -58 -44 -58 -38 0 105 152
756 196 843 18 33 43 35 168 7 108 -24 234 -79 358 -155 201 -125 225 -141
278 -179 221 -161 370 -310 488 -491 117 -179 122 -187 187 -302 32 -56 64
-104 71 -107 7 -3 20 4 29 14 15 17 14 22 -20 91 -72 144 -209 361 -268 427
-38 41 -2 22 78 -41 44 -35 109 -95 144 -135 70 -78 86 -88 108 -70 22 18 12
67 -46 245 -60 182 -89 241 -194 398 -69 103 -115 163 -245 317 -33 39 -19 35
46 -15z m1005 -378 c5 -3 -6 -9 -24 -11 -21 -3 -37 0 -46 11 -18 20 -93 140
-93 148 0 4 35 -27 78 -67 42 -41 81 -77 85 -81z m-2341 54 c-42 -144 -92
-424 -92 -521 0 -54 -4 -70 -31 -109 -17 -24 -42 -63 -56 -86 l-24 -42 4 35
c2 19 11 73 21 120 9 47 26 135 37 195 12 61 37 161 56 224 35 119 93 265 101
257 2 -3 -5 -36 -16 -73z m3628 -1873 c0 -5 -5 -10 -11 -10 -5 0 -7 5 -4 10 3
6 8 10 11 10 2 0 4 -4 4 -10z m195 -140 c48 -95 57 -151 62 -395 4 -193 2
-243 -12 -312 -10 -46 -20 -83 -24 -83 -3 0 -21 58 -38 130 -24 94 -30 137
-24 154 16 42 30 133 24 156 -5 18 -10 10 -22 -39 -9 -34 -20 -62 -25 -62 -11
0 -69 201 -61 209 3 4 19 1 34 -5 25 -9 28 -8 24 7 -6 24 31 44 69 36 26 -5
29 -4 18 9 -18 21 -63 18 -94 -6 -20 -15 -31 -18 -38 -11 -15 15 7 119 32 155
15 19 17 27 7 27 -22 0 -57 -44 -68 -85 -6 -20 -14 -33 -18 -29 -7 9 -61 182
-61 196 0 4 14 23 30 42 l31 35 65 -41 c50 -31 71 -52 89 -88z m-6091 -895
c-4 -8 -10 -12 -15 -9 -11 6 -2 24 11 24 5 0 7 -7 4 -15z m95 -448 c-2 -1 -13
-9 -24 -17 -19 -14 -19 -14 -6 3 7 9 18 17 24 17 6 0 8 -1 6 -3z m2604 -1898
c-8 -29 -13 -23 -13 14 0 22 3 28 9 18 5 -7 6 -22 4 -32z m142 -44 c28 -16 73
-49 100 -75 28 -26 63 -56 79 -68 44 -33 15 -26 -56 14 -107 60 -208 144 -208
173 0 12 2 12 18 -1 9 -8 40 -28 67 -43z m980 -29 c19 -8 35 -18 35 -22 0 -9
-71 6 -100 21 l-25 14 28 1 c15 0 43 -7 62 -14z m349 -26 c27 -11 46 -23 43
-26 -7 -7 -128 34 -142 48 -15 16 41 3 99 -22z m-1330 -44 c74 -61 119 -87
336 -189 71 -34 120 -67 195 -132 141 -122 626 -510 670 -536 30 -18 41 -20
56 -11 24 15 24 31 -1 -203 -20 -199 -55 -636 -65 -815 -4 -86 -2 -114 12
-154 21 -56 39 -62 34 -10 -1 19 1 54 5 77 l7 42 9 -35 c14 -56 22 -773 10
-854 -12 -75 -27 -98 -84 -127 -37 -19 -38 -19 -87 0 -81 31 -198 102 -509
310 -161 108 -332 219 -380 247 -48 27 -136 84 -197 125 -60 42 -139 93 -175
114 -118 69 -180 146 -180 221 0 55 12 62 33 19 16 -34 40 -45 52 -26 3 5 10
47 16 93 6 46 19 126 30 180 10 53 19 125 19 160 0 58 17 258 55 663 15 164
28 370 45 695 8 177 11 210 15 210 1 0 37 -29 79 -64z m803 12 c53 -28 110
-64 127 -79 40 -34 231 -159 301 -196 46 -24 58 -26 74 -16 11 7 22 9 24 5 6
-8 -10 -112 -17 -119 -11 -11 -206 71 -206 87 0 4 30 -3 67 -17 73 -26 106
-27 111 -2 2 11 -9 20 -30 28 -75 28 -116 51 -167 95 -73 64 -221 165 -306
210 -68 37 -97 56 -81 56 4 0 50 -23 103 -52z m-567 0 c21 -18 93 -67 160
-108 208 -129 361 -231 439 -295 122 -99 300 -229 379 -275 l72 -43 0 -59 c0
-32 -4 -58 -10 -58 -12 0 -112 71 -107 76 2 2 18 -1 36 -6 35 -10 64 -4 58 13
-2 6 -39 30 -83 54 -91 51 -360 250 -431 320 -27 25 -80 63 -119 84 -89 46
-192 115 -309 207 -131 104 -152 122 -137 122 8 0 31 -15 52 -32z m518 -51
c204 -124 261 -161 262 -170 0 -15 -338 180 -395 227 -59 50 -1 24 133 -57z
m492 28 c7 -8 8 -15 2 -15 -5 0 -15 7 -22 15 -7 8 -8 15 -2 15 5 0 15 -7 22
-15z m115 -36 c11 -17 -1 -21 -15 -4 -8 9 -8 15 -2 15 6 0 14 -5 17 -11z m-94
-104 c22 -15 39 -28 36 -31 -5 -5 -137 55 -137 63 0 12 62 -8 101 -32z m89 15
c0 -5 -2 -10 -4 -10 -3 0 -8 5 -11 10 -3 6 -1 10 4 10 6 0 11 -4 11 -10z
m-388 -187 c197 -107 259 -137 297 -141 44 -4 47 -6 43 -28 -2 -13 -11 -24
-19 -24 -29 0 -433 205 -555 282 -49 31 -60 48 -32 48 9 0 128 -61 266 -137z
m-241 -110 c13 -16 12 -17 -3 -4 -10 7 -18 15 -18 17 0 8 8 3 21 -13z m367
-52 c64 -32 136 -64 160 -71 40 -13 42 -15 42 -52 0 -21 -4 -38 -9 -38 -9 0
-259 165 -301 199 -40 33 -17 25 108 -38z m-1657 -1530 c-30 -59 -37 -121 -17
-159 18 -34 110 -112 226 -189 268 -178 533 -363 643 -449 186 -145 224 -172
302 -211 39 -20 65 -38 58 -40 -21 -7 -196 90 -242 134 -34 34 -188 146 -316
229 -77 51 -174 115 -215 144 -41 28 -138 94 -215 147 -285 195 -319 245 -253
378 23 46 39 67 45 61 2 -2 -5 -22 -16 -45z m2078 -114 c12 -34 28 -98 37
-142 18 -93 35 -499 24 -565 -6 -37 -8 -27 -9 55 -3 268 -29 511 -70 648 -25
85 -10 89 18 4z m8 -1181 c-68 -103 -299 -178 -402 -131 -28 12 -24 13 66 14
138 1 241 42 318 125 29 31 40 26 18 -8z m-289 -235 c3 -8 -1 -12 -9 -9 -7 2
-15 10 -17 17 -3 8 1 12 9 9 7 -2 15 -10 17 -17z m-3366 -797 c-49 -132 -99
-267 -112 -302 -12 -34 -24 -61 -26 -59 -2 2 7 35 21 73 13 38 50 141 81 229
63 180 114 308 121 302 2 -3 -36 -112 -85 -243z m2284 -471 c82 -267 150 -809
170 -1365 6 -165 5 -188 -9 -188 -12 0 -16 23 -21 128 -28 567 -52 804 -115
1157 -11 61 -27 151 -35 200 -9 50 -18 104 -21 120 -8 43 11 10 31 -52z"/>
<path d="M7232 12815 c-212 -59 -345 -225 -344 -431 0 -62 27 -180 43 -190 5
-3 9 33 9 79 0 149 57 315 131 382 69 62 175 99 278 96 50 -1 146 -50 233
-119 68 -54 108 -96 200 -213 24 -32 27 -33 43 -17 17 15 16 20 -16 75 -43 75
-172 209 -242 251 -74 45 -185 89 -239 96 -24 3 -66 -1 -96 -9z"/>
<path d="M5315 12434 c-100 -9 -284 -67 -398 -126 -141 -72 -276 -288 -313
-502 -23 -129 -9 -276 27 -276 18 0 30 55 38 175 19 275 149 478 372 579 228
104 506 97 698 -16 57 -35 189 -158 258 -243 23 -27 44 -47 48 -43 11 11 -51
136 -93 187 -99 122 -232 208 -379 245 -62 16 -193 26 -258 20z"/>
<path d="M6697 12255 c-15 -64 -20 -261 -7 -316 37 -158 173 -333 338 -435
175 -108 182 -113 182 -147 0 -38 -45 -137 -102 -225 -33 -51 -38 -65 -28 -77
7 -8 21 -15 32 -15 46 0 142 148 172 265 27 103 3 137 -169 234 -107 61 -189
131 -264 225 -67 83 -97 153 -110 250 -6 43 -14 83 -18 89 -3 6 -9 49 -12 96
-5 66 -8 79 -14 56z"/>
<path d="M7250 12232 c-49 -15 -58 -22 -77 -62 -32 -63 -31 -135 3 -186 36
-54 74 -93 106 -110 86 -45 226 25 244 121 9 50 -21 130 -69 182 -70 76 -107
86 -207 55z"/>
<path d="M7886 11878 c-43 -141 -107 -214 -224 -258 -86 -32 -154 -35 -256
-11 -131 31 -196 71 -274 166 -28 35 -32 37 -32 17 0 -59 69 -153 145 -198
173 -101 397 -103 539 -5 112 78 166 169 166 280 0 44 -4 62 -19 75 -19 17
-20 15 -45 -66z"/>
<path d="M5200 11718 c-64 -39 -110 -106 -117 -171 -11 -93 50 -199 145 -255
99 -58 236 -26 300 70 22 34 28 55 31 120 3 69 0 83 -23 121 -51 89 -142 147
-229 147 -42 0 -64 -7 -107 -32z"/>
<path d="M8057 11556 c-27 -19 -58 -43 -71 -55 -29 -27 -34 -27 -68 6 -36 34
-47 23 -24 -24 21 -45 22 -44 -98 -105 l-79 -40 -24 31 c-34 43 -45 39 -41
-15 l3 -46 -77 -31 c-43 -16 -78 -34 -78 -39 0 -12 68 -2 133 19 l49 15 35
-33 35 -34 -4 47 c-4 38 -2 48 11 53 9 2 52 25 95 50 44 25 80 45 82 45 1 0
11 -16 23 -35 35 -60 54 -38 29 32 -12 32 -11 35 18 58 44 34 128 135 112 134
-7 0 -35 -15 -61 -33z"/>
<path d="M6095 11368 c-2 -7 -11 -40 -20 -73 -44 -159 -168 -312 -306 -378
-128 -62 -205 -79 -380 -84 -135 -5 -166 -3 -238 16 -45 11 -111 35 -146 52
-69 34 -169 115 -213 172 -31 41 -42 46 -42 17 0 -83 143 -220 296 -283 106
-44 158 -52 334 -51 193 1 271 17 410 86 199 98 365 346 336 503 -7 35 -23 47
-31 23z"/>
<path d="M8080 11343 c0 -5 -19 -17 -42 -28 -23 -11 -76 -49 -118 -84 -41 -35
-102 -82 -135 -104 -86 -56 -284 -150 -395 -187 -181 -60 -803 -213 -1194
-294 -576 -120 -868 -157 -1386 -177 -163 -6 -295 -16 -308 -22 -17 -8 -22
-16 -17 -32 3 -11 13 -74 21 -140 37 -284 140 -559 319 -846 152 -245 282
-390 480 -538 258 -192 518 -294 844 -332 148 -17 444 -7 596 20 424 75 715
191 980 392 176 132 263 225 392 419 165 247 233 532 233 980 0 277 -28 528
-76 692 -36 119 -141 288 -180 288 -8 0 -14 -3 -14 -7z m60 -115 c22 -46 42
-96 46 -112 l7 -29 -34 26 c-75 57 -145 56 -169 -3 -7 -17 -14 -30 -16 -30 -6
0 -54 51 -54 58 0 6 170 171 178 172 2 0 21 -37 42 -82z m-2 -165 c24 -27 50
-47 58 -45 15 3 27 -37 43 -138 17 -102 16 -109 -24 -126 -44 -18 -55 -18 -55
1 0 8 -4 15 -10 15 -5 0 -10 -7 -10 -15 0 -16 -4 -17 -120 -34 -41 -7 -259
-71 -485 -142 -521 -166 -669 -213 -870 -274 -236 -71 -549 -169 -750 -235
-115 -38 -259 -83 -320 -100 -60 -17 -224 -69 -363 -116 -139 -46 -266 -84
-282 -84 -16 0 -46 9 -67 21 l-38 21 33 -31 c17 -17 32 -33 32 -35 0 -3 -24
-7 -52 -11 -84 -10 -103 2 -148 97 -68 147 -96 286 -70 353 21 55 75 40 156
-42 57 -58 89 -67 103 -30 5 12 16 58 24 102 8 44 22 97 31 119 15 35 18 38
47 32 16 -3 60 -23 97 -45 97 -57 103 -57 122 9 10 30 21 55 26 57 5 2 34 -22
64 -52 30 -30 58 -55 63 -55 5 0 7 17 5 37 -5 42 22 99 50 107 9 3 100 19 202
36 422 70 871 165 1325 280 469 119 588 163 818 302 54 33 106 58 115 56 9 -2
33 -26 54 -53 53 -70 77 -69 102 8 12 37 24 57 34 57 9 0 36 -21 60 -47z m142
-393 c0 -13 -1 -13 -10 0 -5 8 -10 22 -10 30 0 13 1 13 10 0 5 -8 10 -22 10
-30z m-225 -9 c-16 -15 -82 -29 -95 -21 -9 5 2 12 31 18 59 13 75 14 64 3z
m-2682 -261 c-8 -30 -22 -34 -44 -14 -28 25 -24 34 15 34 29 0 33 -3 29 -20z
m-197 -12 c-3 -13 -6 -27 -6 -31 0 -5 -18 2 -40 14 -22 13 -40 26 -40 31 0 4
21 8 46 8 43 0 46 -2 40 -22z m-271 -15 c-4 -10 -17 -56 -28 -103 -11 -47 -21
-91 -23 -98 -3 -9 -13 -2 -30 18 -63 74 -173 92 -222 35 -13 -15 -24 -26 -26
-24 -4 6 -26 145 -26 168 0 20 5 21 181 21 169 0 181 -1 174 -17z m2625 -527
c128 -22 369 -113 418 -159 28 -26 52 -104 52 -168 0 -50 2 -48 -61 -65 -12
-3 -18 4 -23 31 -9 44 -22 45 -30 1 -9 -45 -18 -51 -111 -76 -112 -30 -914
-276 -1190 -365 -498 -160 -516 -165 -546 -150 -15 8 -49 19 -75 25 -27 5 -60
13 -74 16 -53 12 -3 -14 68 -35 39 -12 72 -23 72 -25 0 -3 -36 -16 -79 -31
-59 -19 -84 -24 -98 -16 -10 5 -63 29 -118 52 -55 23 -107 47 -115 53 -13 10
-13 9 -1 -7 15 -19 184 -107 210 -108 21 -1 -78 -48 -103 -48 -26 -1 -170 77
-218 118 -21 18 -41 31 -44 28 -3 -3 6 -16 20 -28 14 -12 26 -26 26 -30 0 -13
-108 53 -157 96 -44 39 -46 43 -45 93 1 29 8 65 16 80 l15 27 1 -43 c0 -47 23
-112 40 -112 6 0 8 11 5 25 -3 14 -7 37 -10 51 -9 40 13 126 40 157 13 15 27
27 31 27 4 0 38 30 75 68 107 108 158 147 254 195 161 80 423 182 558 216 250
64 512 99 592 78 28 -8 29 -7 11 7 -24 20 -13 24 74 29 188 9 441 6 520 -7z
m445 -58 c17 -29 17 -31 1 -19 -21 17 -40 51 -29 51 5 0 17 -15 28 -32z
m-3183 -105 c15 -13 24 -14 53 -6 45 14 44 4 -2 -26 l-37 -24 -23 29 c-34 43
-28 61 9 27z m3281 -144 c3 -20 2 -41 -2 -48 -8 -12 -21 40 -21 84 0 30 17 4
23 -36z m-23 -138 c-19 -36 -126 -166 -181 -220 -103 -102 -290 -236 -416
-300 -397 -199 -954 -294 -1368 -231 -140 21 -261 52 -258 65 1 5 37 19 80 31
43 12 170 52 283 88 507 165 1132 362 1370 431 25 7 99 29 165 49 66 20 152
46 190 57 39 11 84 26 100 34 41 19 47 18 35 -4z"/>
<path d="M7460 9780 c33 -25 118 -67 153 -76 76 -18 -20 45 -125 82 -53 18
-58 17 -28 -6z"/>
<path d="M6695 9771 c-44 -10 -14 -23 34 -15 23 4 41 10 41 15 0 10 -30 10
-75 0z"/>
<path d="M7632 9759 c5 -14 95 -67 117 -68 33 -2 -46 58 -98 74 -17 5 -22 4
-19 -6z"/>
<path d="M6445 9730 c-15 -6 -8 -9 27 -9 26 -1 50 4 53 9 8 12 -52 12 -80 0z"/>
<path d="M6558 9709 c-25 -14 -22 -29 6 -29 23 0 41 22 29 34 -8 8 -15 7 -35
-5z"/>
<path d="M6365 9680 c-8 -13 5 -13 25 0 13 8 13 10 -2 10 -9 0 -20 -4 -23 -10z"/>
<path d="M6167 9650 c-55 -17 -97 -44 -97 -61 0 -4 30 8 68 27 37 19 72 34 79
34 6 0 15 5 18 10 8 13 0 12 -68 -10z"/>
<path d="M7884 9648 c3 -13 6 -29 6 -35 0 -7 5 -13 10 -13 11 0 13 30 4 54 -9
25 -27 19 -20 -6z"/>
<path d="M6145 9589 c-11 -17 0 -20 21 -4 17 13 17 14 2 15 -9 0 -20 -5 -23
-11z"/>
<path d="M5940 9565 c-20 -24 2 -41 24 -20 9 9 16 21 16 26 0 14 -26 10 -40
-6z"/>
<path d="M5810 9487 c-29 -23 -54 -103 -29 -95 10 3 52 98 46 104 -1 1 -9 -3
-17 -9z"/>
<path d="M5636 9325 c-20 -42 -19 -137 3 -158 10 -9 11 1 5 50 -4 42 -2 73 6
92 18 46 6 60 -14 16z"/>
<path d="M5522 9297 c-37 -44 -57 -162 -34 -202 6 -12 11 3 15 56 3 41 13 91
22 113 17 40 16 56 -3 33z"/>
<path d="M7116 11331 c-4 -7 -5 -15 -2 -18 9 -9 19 4 14 18 -4 11 -6 11 -12 0z"/>
<path d="M6960 11290 c0 -11 7 -20 15 -20 8 0 15 9 15 20 0 11 -7 20 -15 20
-8 0 -15 -9 -15 -20z"/>
<path d="M6839 11130 c-42 -39 -51 -52 -41 -62 14 -14 55 5 111 52 29 25 32
31 21 45 -20 24 -34 18 -91 -35z"/>
<path d="M3172 9919 c-66 -43 -76 -101 -42 -259 21 -96 63 -202 113 -280 35
-55 33 -50 -27 74 -56 117 -86 225 -86 312 0 57 3 64 30 88 100 84 289 13 500
-188 64 -61 71 -77 23 -53 -15 8 -66 27 -113 42 -47 15 -125 48 -173 72 -83
42 -92 45 -153 41 -46 -3 -69 -9 -82 -22 -16 -18 -16 -18 3 -11 93 35 136 31
212 -20 86 -57 111 -69 244 -120 159 -60 200 -95 145 -124 -21 -12 -33 -9
-104 23 -96 44 -147 47 -185 12 -14 -13 -29 -36 -33 -50 -9 -37 19 -111 67
-172 68 -88 131 -127 276 -170 75 -22 101 -25 175 -21 129 8 177 40 137 91
-19 24 -26 26 -103 26 -112 0 -175 20 -220 70 -56 62 -49 101 24 150 19 13 38
29 42 35 18 25 6 66 -35 121 -84 113 -226 228 -377 305 -72 36 -96 44 -155 47
-58 2 -75 -1 -103 -19z m479 -469 l56 -29 -10 -39 c-16 -61 10 -118 72 -160
58 -40 155 -72 219 -73 79 -1 17 -17 -68 -18 -81 -1 -161 16 -241 50 -66 29
-151 121 -178 194 -26 69 -26 70 0 96 26 26 67 20 150 -21z"/>
<path d="M10050 11380 c-74 -26 -157 -55 -185 -65 -27 -9 -78 -31 -113 -47
-36 -16 -189 -82 -341 -147 -152 -65 -312 -135 -356 -154 -119 -52 -123 -53
-136 -23 -7 14 -16 23 -21 20 -13 -8 1 -64 25 -97 26 -38 38 -35 241 54 483
213 591 261 696 311 64 30 141 71 173 91 31 20 84 50 117 67 59 30 73 41 48
39 -7 -1 -74 -22 -148 -49z"/>
<path d="M8955 10481 c-12 -40 16 -67 100 -94 28 -9 165 -43 305 -76 140 -33
266 -63 280 -67 l25 -6 -25 21 c-40 33 -169 97 -250 125 -41 13 -136 38 -211
54 -74 17 -152 37 -173 46 -47 20 -43 20 -51 -3z"/>
<path d="M7914 3927 c8 -97 32 -191 46 -182 17 10 11 115 -10 186 -31 102 -44
100 -36 -4z"/>
<path d="M8000 3513 c0 -10 4 -34 9 -53 6 -19 17 -105 26 -190 9 -85 41 -299
70 -476 30 -176 70 -435 89 -575 34 -243 45 -331 101 -804 14 -115 43 -356 65
-535 22 -179 44 -363 50 -410 5 -47 21 -169 35 -270 14 -102 25 -188 25 -192
0 -5 18 -8 41 -8 l41 0 -6 38 c-3 20 -22 167 -41 327 -19 160 -44 360 -55 445
-29 221 -69 545 -85 685 -59 504 -99 812 -130 995 -9 52 -23 136 -31 185 -8
50 -33 186 -55 304 -22 118 -47 267 -55 330 -18 138 -29 185 -50 206 -21 20
-44 19 -44 -2z"/>
<path d="M2555 2903 c-45 -115 -165 -462 -284 -823 -236 -710 -271 -817 -316
-965 -35 -115 -146 -471 -302 -970 -14 -44 -28 -95 -33 -112 l-8 -33 42 0 43
0 42 137 c23 76 62 206 87 288 24 83 60 197 78 255 19 58 48 152 66 210 55
184 148 473 290 910 197 602 236 742 301 1069 9 47 6 64 -6 34z"/>
</g>
</svg>
